#Comment line ignore any data following # character 
#Hierarchical Translation and Rotation (.htr) file 
[Header]	
#Header keywords are followed by a single value 
FileType HTR		#Single word string
DataType HTRS		#Translation followed by rotation and scale data
FileVersion 1		#integer
NumSegments 84		#integer
NumFrames 2		#integer
DataFrameRate 30		#integer, data frame rate in this file
EulerRotationOrder ZYX
CalibrationUnits mm
RotationUnits Degrees
GlobalAxisofGravity Y
BoneLengthAxis Y
ScaleFactor 1.00
[SegmentNames&Hierarchy]
#CHILD	PARENT
MASTER GLOBAL
root MASTER
chest root
L_mid_tent01 root
R_mid_tent01 root
spine01 root
Bip01_Neck chest
L_humerus chest
R_humerus chest
weapon_bone chest
Bip01_Head Bip01_Neck
eye_left_bone Bip01_Head
eye_right_bone Bip01_Head
L_forearm L_humerus
L_front_hand L_forearm
L_weapon_bone L_forearm
L_front_hand01_01 L_front_hand
L_front_hand02_01 L_front_hand
L_front_hand03_01 L_front_hand
L_front_hand01_02 L_front_hand01_01
L_front_hand02_02 L_front_hand02_01
L_front_hand03_02 L_front_hand03_01
R_forearm R_humerus
R_front_hand R_forearm
R_weapon_bone R_forearm
R_front_hand01_01 R_front_hand
R_front_hand02_01 R_front_hand
R_front_hand03_01 R_front_hand
R_front_hand01_02 R_front_hand01_01
R_front_hand02_02 R_front_hand02_01
R_front_hand03_02 R_front_hand03_01
null_rope01_connect L_mid_tent01
Rope1_Seg01 null_rope01_connect
Rope1_Seg02 Rope1_Seg01
Rope1_Seg03 Rope1_Seg02
Rope1_Seg04 Rope1_Seg03
Rope1_Seg05 Rope1_Seg04
Rope1_Seg06 Rope1_Seg05
Rope1_Seg07 Rope1_Seg06
Rope1_Seg09 Rope1_Seg07
L_mid_hand01 Rope1_Seg09
L_mid_hand02 Rope1_Seg09
L_mid_hand03 Rope1_Seg09
null_rope02_connect R_mid_tent01
Rope2_Seg01 null_rope02_connect
Rope2_Seg02 Rope2_Seg01
Rope2_Seg03 Rope2_Seg02
Rope2_Seg04 Rope2_Seg03
Rope2_Seg05 Rope2_Seg04
Rope2_Seg06 Rope2_Seg05
Rope2_Seg07 Rope2_Seg06
Rope2_Seg09 Rope2_Seg07
R_mid_hand01 Rope2_Seg09
R_mid_hand02 Rope2_Seg09
R_mid_hand03 Rope2_Seg09
spine02 spine01
spine03 spine02
pelvis spine03
null_rope03_connect pelvis
null_rope04_connect pelvis
Rope3_Seg01 null_rope03_connect
Rope3_Seg02 Rope3_Seg01
Rope3_Seg03 Rope3_Seg02
Rope3_Seg04 Rope3_Seg03
Rope3_Seg05 Rope3_Seg04
Rope3_Seg06 Rope3_Seg05
Rope3_Seg07 Rope3_Seg06
Rope3_Seg08 Rope3_Seg07
Rope3_Seg09 Rope3_Seg08
R_rear_hand01 Rope3_Seg09
R_rear_hand02 Rope3_Seg09
R_rear_hand03 Rope3_Seg09
Rope4_Seg01 null_rope04_connect
Rope4_Seg02 Rope4_Seg01
Rope4_Seg03 Rope4_Seg02
Rope4_Seg04 Rope4_Seg03
Rope4_Seg05 Rope4_Seg04
Rope4_Seg06 Rope4_Seg05
Rope4_Seg07 Rope4_Seg06
Rope4_Seg08 Rope4_Seg07
Rope4_Seg09 Rope4_Seg08
L_rear_hand01 Rope4_Seg09
L_rear_hand02 Rope4_Seg09
L_rear_hand03 Rope4_Seg09
[BasePosition]
#SegmentName Tx, Ty, Tz, Rx, Ry, Rz, BoneLength
MASTER 0.000000 0.000000 0.000000 -90.000000 0.000000 0.000000 10.000000 
root 0.000000 0.000000 0.000000 0.000000 0.000000 0.000000 10.000000 
chest 0.000000 0.000000 0.000000 0.000000 0.000000 0.000000 10.000000 
L_mid_tent01 0.000000 0.000000 0.000000 0.000000 0.000000 0.000000 10.000000 
R_mid_tent01 0.000000 0.000000 0.000000 0.000000 0.000000 0.000000 10.000000 
spine01 0.000000 0.000000 0.000000 0.000000 0.000000 0.000000 10.000000 
Bip01_Neck 0.000000 0.000000 0.000000 0.000000 0.000000 0.000000 10.000000 
L_humerus 0.000000 0.000000 0.000000 0.000000 0.000000 0.000000 10.000000 
R_humerus 0.000000 0.000000 0.000000 0.000000 0.000000 0.000000 10.000000 
weapon_bone 0.000000 0.000000 0.000000 0.000000 0.000000 0.000000 10.000000 
Bip01_Head 0.000000 0.000000 0.000000 0.000000 0.000000 0.000000 10.000000 
eye_left_bone 0.000000 0.000000 0.000000 0.000000 0.000000 0.000000 10.000000 
eye_right_bone 0.000000 0.000000 0.000000 0.000000 0.000000 0.000000 10.000000 
L_forearm 0.000000 0.000000 0.000000 0.000000 0.000000 0.000000 10.000000 
L_front_hand 0.000000 0.000000 0.000000 0.000000 0.000000 0.000000 10.000000 
L_weapon_bone 0.000000 0.000000 0.000000 0.000000 0.000000 0.000000 10.000000 
L_front_hand01_01 0.000000 0.000000 0.000000 0.000000 0.000000 0.000000 10.000000 
L_front_hand02_01 0.000000 0.000000 0.000000 0.000000 0.000000 0.000000 10.000000 
L_front_hand03_01 0.000000 0.000000 0.000000 0.000000 0.000000 0.000000 10.000000 
L_front_hand01_02 0.000000 0.000000 0.000000 0.000000 0.000000 0.000000 10.000000 
L_front_hand02_02 0.000000 0.000000 0.000000 0.000000 0.000000 0.000000 10.000000 
L_front_hand03_02 0.000000 0.000000 0.000000 0.000000 0.000000 0.000000 10.000000 
R_forearm 0.000000 0.000000 0.000000 0.000000 0.000000 0.000000 10.000000 
R_front_hand 0.000000 0.000000 0.000000 0.000000 0.000000 0.000000 10.000000 
R_weapon_bone 0.000000 0.000000 0.000000 0.000000 0.000000 0.000000 10.000000 
R_front_hand01_01 0.000000 0.000000 0.000000 0.000000 0.000000 0.000000 10.000000 
R_front_hand02_01 0.000000 0.000000 0.000000 0.000000 0.000000 0.000000 10.000000 
R_front_hand03_01 0.000000 0.000000 0.000000 0.000000 0.000000 0.000000 10.000000 
R_front_hand01_02 0.000000 0.000000 0.000000 0.000000 0.000000 0.000000 10.000000 
R_front_hand02_02 0.000000 0.000000 0.000000 0.000000 0.000000 0.000000 10.000000 
R_front_hand03_02 0.000000 0.000000 0.000000 0.000000 0.000000 0.000000 10.000000 
null_rope01_connect 0.000000 0.000000 0.000000 0.000000 0.000000 0.000000 10.000000 
Rope1_Seg01 0.000000 0.000000 0.000000 0.000000 0.000000 0.000000 10.000000 
Rope1_Seg02 0.000000 0.000000 0.000000 0.000000 0.000000 0.000000 10.000000 
Rope1_Seg03 0.000000 0.000000 0.000000 0.000000 0.000000 0.000000 10.000000 
Rope1_Seg04 0.000000 0.000000 0.000000 0.000000 0.000000 0.000000 10.000000 
Rope1_Seg05 0.000000 0.000000 0.000000 0.000000 0.000000 0.000000 10.000000 
Rope1_Seg06 0.000000 0.000000 0.000000 0.000000 0.000000 0.000000 10.000000 
Rope1_Seg07 0.000000 0.000000 0.000000 0.000000 0.000000 0.000000 10.000000 
Rope1_Seg09 0.000000 0.000000 0.000000 0.000000 0.000000 0.000000 10.000000 
L_mid_hand01 0.000000 0.000000 0.000000 0.000000 0.000000 0.000000 10.000000 
L_mid_hand02 0.000000 0.000000 0.000000 0.000000 0.000000 0.000000 10.000000 
L_mid_hand03 0.000000 0.000000 0.000000 0.000000 0.000000 0.000000 10.000000 
null_rope02_connect 0.000000 0.000000 0.000000 0.000000 0.000000 0.000000 10.000000 
Rope2_Seg01 0.000000 0.000000 0.000000 0.000000 0.000000 0.000000 10.000000 
Rope2_Seg02 0.000000 0.000000 0.000000 0.000000 0.000000 0.000000 10.000000 
Rope2_Seg03 0.000000 0.000000 0.000000 0.000000 0.000000 0.000000 10.000000 
Rope2_Seg04 0.000000 0.000000 0.000000 0.000000 0.000000 0.000000 10.000000 
Rope2_Seg05 0.000000 0.000000 0.000000 0.000000 0.000000 0.000000 10.000000 
Rope2_Seg06 0.000000 0.000000 0.000000 0.000000 0.000000 0.000000 10.000000 
Rope2_Seg07 0.000000 0.000000 0.000000 0.000000 0.000000 0.000000 10.000000 
Rope2_Seg09 0.000000 0.000000 0.000000 0.000000 0.000000 0.000000 10.000000 
R_mid_hand01 0.000000 0.000000 0.000000 0.000000 0.000000 0.000000 10.000000 
R_mid_hand02 0.000000 0.000000 0.000000 0.000000 0.000000 0.000000 10.000000 
R_mid_hand03 0.000000 0.000000 0.000000 0.000000 0.000000 0.000000 10.000000 
spine02 0.000000 0.000000 0.000000 0.000000 0.000000 0.000000 10.000000 
spine03 0.000000 0.000000 0.000000 0.000000 0.000000 0.000000 10.000000 
pelvis 0.000000 0.000000 0.000000 0.000000 0.000000 0.000000 10.000000 
null_rope03_connect 0.000000 0.000000 0.000000 0.000000 0.000000 0.000000 10.000000 
null_rope04_connect 0.000000 0.000000 0.000000 0.000000 0.000000 0.000000 10.000000 
Rope3_Seg01 0.000000 0.000000 0.000000 0.000000 0.000000 0.000000 10.000000 
Rope3_Seg02 0.000000 0.000000 0.000000 0.000000 0.000000 0.000000 10.000000 
Rope3_Seg03 0.000000 0.000000 0.000000 0.000000 0.000000 0.000000 10.000000 
Rope3_Seg04 0.000000 0.000000 0.000000 0.000000 0.000000 0.000000 10.000000 
Rope3_Seg05 0.000000 0.000000 0.000000 0.000000 0.000000 0.000000 10.000000 
Rope3_Seg06 0.000000 0.000000 0.000000 0.000000 0.000000 0.000000 10.000000 
Rope3_Seg07 0.000000 0.000000 0.000000 0.000000 0.000000 0.000000 10.000000 
Rope3_Seg08 0.000000 0.000000 0.000000 0.000000 0.000000 0.000000 10.000000 
Rope3_Seg09 0.000000 0.000000 0.000000 0.000000 0.000000 0.000000 10.000000 
R_rear_hand01 0.000000 0.000000 0.000000 0.000000 0.000000 0.000000 10.000000 
R_rear_hand02 0.000000 0.000000 0.000000 0.000000 0.000000 0.000000 10.000000 
R_rear_hand03 0.000000 0.000000 0.000000 0.000000 0.000000 0.000000 10.000000 
Rope4_Seg01 0.000000 0.000000 0.000000 0.000000 0.000000 0.000000 10.000000 
Rope4_Seg02 0.000000 0.000000 0.000000 0.000000 0.000000 0.000000 10.000000 
Rope4_Seg03 0.000000 0.000000 0.000000 0.000000 0.000000 0.000000 10.000000 
Rope4_Seg04 0.000000 0.000000 0.000000 0.000000 0.000000 0.000000 10.000000 
Rope4_Seg05 0.000000 0.000000 0.000000 0.000000 0.000000 0.000000 10.000000 
Rope4_Seg06 0.000000 0.000000 0.000000 0.000000 0.000000 0.000000 10.000000 
Rope4_Seg07 0.000000 0.000000 0.000000 0.000000 0.000000 0.000000 10.000000 
Rope4_Seg08 0.000000 0.000000 0.000000 0.000000 0.000000 0.000000 10.000000 
Rope4_Seg09 0.000000 0.000000 0.000000 0.000000 0.000000 0.000000 10.000000 
L_rear_hand01 0.000000 0.000000 0.000000 0.000000 0.000000 0.000000 10.000000 
L_rear_hand02 0.000000 0.000000 0.000000 0.000000 0.000000 0.000000 10.000000 
L_rear_hand03 0.000000 0.000000 0.000000 0.000000 0.000000 0.000000 10.000000 
#Beginning of Data. Separated by tabs
#Fr	Tx	Ty	Tz	Rx	Ry	Rz	SF
[MASTER]
58 77.753639 15278.556641 -76.783791 0.001660 0.001660 0.001660 15278.947266
59 164.084839 15479.931641 -107.012741 0.001660 0.001660 0.001660 15481.171875
[root]
58 -16.502300 -62.822266 1500.000000 -68.796234 -24.249889 -103.123016 1501.405640
59 -16.502300 -62.822266 1500.000000 -70.086266 -26.425758 -99.312637 1501.405640
[chest]
58 -84.512650 -34.090519 0.000000 24.611177 -0.468062 176.195236 91.129311
59 -84.512650 -34.090519 0.000000 19.625828 -1.438187 176.576859 91.129311
[L_mid_tent01]
58 27.298676 22.179258 -249.918701 -2.695701 -0.425453 17.443459 252.381653
59 27.298668 22.179258 -249.918701 -2.399961 1.309086 24.779633 252.381653
[R_mid_tent01]
58 23.228794 24.509907 226.238495 -175.728714 -34.731667 51.109966 228.744751
59 23.228794 24.509907 226.238495 -174.171768 -20.961185 44.326492 228.744751
[spine01]
58 -0.361383 -0.195265 0.000000 0.001831 0.001469 12.524366 0.410763
59 -0.361383 -0.195265 0.000000 0.001841 0.001456 13.311049 0.410763
[Bip01_Neck]
58 165.484543 71.581718 0.000119 176.643677 -1.657967 43.431911 180.302734
59 165.484543 71.581718 0.000119 176.643677 -1.657967 43.431911 180.302734
[L_humerus]
58 -13.983130 -135.272980 -120.471481 149.675171 68.775467 -119.114265 181.680161
59 -13.983130 -135.272980 -120.471481 156.317566 70.210182 -112.010078 181.680161
[R_humerus]
58 -13.983309 -135.273102 125.287651 -171.677444 -65.633705 -93.289993 184.909012
59 -13.983309 -135.273102 125.287651 -172.382294 -66.903961 -92.553963 184.909012
[weapon_bone]
58 235.964890 -300.705902 0.000000 0.000000 -89.951546 -128.212341 382.234833
59 235.964890 -300.705902 0.000000 0.000000 -89.951546 -128.212341 382.234833
[Bip01_Head]
58 213.443375 185.716125 11.772313 20.598831 5.298594 -43.850132 283.173340
59 213.443298 185.716095 11.772671 20.874268 5.001995 -43.858128 283.173248
[eye_left_bone]
58 -24.626970 125.451866 -64.772606 0.000000 -90.000000 -99.840431 143.318359
59 -24.626970 125.451866 -64.772606 0.000000 -90.000000 -99.840431 143.318359
[eye_right_bone]
58 -24.626970 125.451866 64.327362 0.000000 -89.965736 80.156380 143.117676
59 -24.626970 125.451866 64.327362 0.000000 -89.965736 80.156380 143.117676
[L_forearm]
58 322.776093 0.000000 -0.000119 0.000403 -0.002312 -109.780678 322.776093
59 322.776093 0.000000 -0.000119 0.000402 -0.002312 -109.735931 322.776093
[L_front_hand]
58 241.149185 -0.042021 -3.300071 -178.667953 -1.835447 -27.422350 241.171753
59 241.149185 -0.042021 -3.300071 -178.667953 -1.835447 -27.422350 241.171753
[L_weapon_bone]
58 156.183838 0.000000 0.000000 0.000014 0.000007 0.000001 156.183838
59 156.183838 0.000000 0.000000 0.000014 0.000007 0.000001 156.183838
[L_front_hand01_01]
58 86.095154 20.947098 -0.655860 -0.366594 -0.477154 75.385574 88.609184
59 86.095154 20.947098 -0.655860 -0.366594 -0.477154 75.385574 88.609184
[L_front_hand02_01]
58 86.935165 -11.437475 24.513514 154.399796 -59.883835 -61.369587 91.046425
59 86.935165 -11.437475 24.513514 154.399796 -59.883835 -61.369587 91.046425
[L_front_hand03_01]
58 86.637497 -14.123976 -20.424902 -153.913849 58.118122 -62.702866 90.126129
59 86.637497 -14.123976 -20.424902 -153.913849 58.118130 -62.702866 90.126129
[L_front_hand01_02]
58 71.020905 -0.000179 0.000030 0.000334 -0.002323 -106.379684 71.020905
59 71.020905 -0.000179 0.000030 0.000334 -0.002323 -106.379684 71.020905
[L_front_hand02_02]
58 71.020927 -0.000119 0.000060 0.000334 -0.002323 -106.379684 71.020927
59 71.020927 -0.000119 0.000060 0.000334 -0.002323 -106.379684 71.020927
[L_front_hand03_02]
58 71.020905 -0.000060 0.000060 0.000334 -0.002323 -106.379684 71.020905
59 71.020905 -0.000060 0.000060 0.000334 -0.002323 -106.379684 71.020905
[R_forearm]
58 322.776428 -0.000060 0.000030 0.201895 0.065799 -108.426582 322.776428
59 322.776428 -0.000060 0.000030 0.201921 0.065719 -108.381432 322.776428
[R_front_hand]
58 238.847015 -0.006795 2.210259 -2.635298 -10.645461 -26.312506 238.857239
59 238.847015 -0.006795 2.210259 -2.635298 -10.645461 -26.312506 238.857239
[R_weapon_bone]
58 155.664093 0.002503 -0.000030 0.003487 0.001180 -90.988930 155.664078
59 155.664093 0.002503 -0.000030 0.003487 0.001180 -90.988930 155.664078
[R_front_hand01_01]
58 87.624611 14.231146 22.918642 -154.633499 -59.950619 61.746044 91.683487
59 87.624611 14.231146 22.918642 -154.633484 -59.950619 61.746037 91.683487
[R_front_hand02_01]
58 89.356956 14.367283 -19.491137 154.602661 58.302849 63.744389 92.579636
59 89.356956 14.367283 -19.491137 154.602661 58.302849 63.744389 92.579636
[R_front_hand03_01]
58 87.286232 -22.307278 -0.143439 0.162155 -0.423168 -75.767906 90.091743
59 87.286232 -22.307278 -0.143439 0.162155 -0.423168 -75.767921 90.091743
[R_front_hand01_02]
58 71.020905 0.000060 0.000119 0.002323 -0.000334 106.381714 71.020905
59 71.020905 0.000060 0.000119 0.002323 -0.000334 106.381714 71.020905
[R_front_hand02_02]
58 71.020844 -0.000030 -0.000119 0.002323 -0.000334 106.381714 71.020836
59 71.020844 -0.000030 -0.000119 0.002323 -0.000334 106.381714 71.020836
[R_front_hand03_02]
58 71.020905 0.000000 0.000030 0.002323 -0.000334 106.381714 71.020905
59 71.020905 0.000000 0.000030 0.002323 -0.000334 106.381714 71.020905
[null_rope01_connect]
58 328.732483 0.000000 -0.000238 -13.364600 -73.001991 112.313080 328.732483
59 328.732483 0.000000 -0.000238 -5.930185 -74.489250 98.780167 328.732483
[Rope1_Seg01]
58 0.000038 -0.001001 0.000000 -163.983322 -38.033840 -110.996971 0.001002
59 0.000038 -0.001018 0.000000 -148.840408 -43.811668 -113.718056 0.001019
[Rope1_Seg02]
58 139.999863 -0.000179 0.000000 -111.950378 -28.181351 5.394395 139.999863
59 139.999863 -0.000179 0.000000 -95.836006 -21.167984 9.363029 139.999863
[Rope1_Seg03]
58 139.999924 0.000060 -0.000060 -25.704971 3.828110 -46.878910 139.999924
59 139.999924 0.000060 -0.000060 -47.074249 -16.945517 -44.162769 139.999924
[Rope1_Seg04]
58 139.999924 -0.000060 -0.000119 -1.922683 10.767123 -14.861504 139.999924
59 139.999924 -0.000060 -0.000119 -4.220362 13.584905 -21.451151 139.999924
[Rope1_Seg05]
58 139.999832 0.000119 -0.000060 3.221087 7.683358 11.333191 139.999832
59 139.999832 0.000119 -0.000060 4.620642 8.330797 11.632086 139.999832
[Rope1_Seg06]
58 139.999954 0.000119 -0.000060 4.548445 8.300220 12.812660 139.999954
59 139.999954 0.000119 -0.000060 6.490649 9.041539 14.132856 139.999954
[Rope1_Seg07]
58 139.999985 0.000060 0.000000 2.504258 6.092437 5.373003 139.999985
59 139.999985 0.000060 0.000000 3.307330 6.578595 5.303004 139.999985
[Rope1_Seg09]
58 121.602913 0.000119 -0.000089 -89.793175 -1.359789 0.847147 121.602913
59 121.602913 0.000119 -0.000089 -89.793175 -1.359789 0.847147 121.602913
[L_mid_hand01]
58 103.859421 1.038730 8.195221 130.544373 -67.584534 -38.866943 104.187431
59 103.859421 1.038730 8.195221 130.544373 -67.584534 -38.866943 104.187431
[L_mid_hand02]
58 105.572853 -4.139662 -10.864139 -168.923172 43.409309 -73.498886 106.211075
59 105.572853 -4.139662 -10.864139 -168.923172 43.409309 -73.498886 106.211075
[L_mid_hand03]
58 104.641464 17.579376 -3.913581 -6.012627 17.808174 74.893669 106.179977
59 104.641464 17.579376 -3.913581 -6.012627 17.808178 74.893677 106.179977
[null_rope02_connect]
58 328.732849 0.000179 -0.000119 -142.461685 44.738918 -32.456738 328.732849
59 328.732849 0.000179 -0.000119 -146.692902 55.596577 -42.137337 328.732849
[Rope2_Seg01]
58 0.000064 -0.000973 0.000000 -49.438580 -21.832508 -128.829971 0.000975
59 0.000064 -0.000992 0.000000 -54.400421 -28.853004 -120.333458 0.000994
[Rope2_Seg02]
58 139.999741 -0.000060 -0.000119 0.696883 0.702065 3.622036 139.999756
59 139.999741 -0.000060 -0.000119 1.891027 0.488351 5.309284 139.999756
[Rope2_Seg03]
58 140.000107 0.000030 0.000000 1.233754 1.173448 5.690114 140.000107
59 140.000107 0.000030 0.000000 3.824393 1.163779 9.339599 140.000107
[Rope2_Seg04]
58 139.999802 0.000000 -0.000060 2.684652 2.350957 10.388087 139.999802
59 139.999802 0.000000 -0.000060 12.141357 3.585483 23.550261 139.999802
[Rope2_Seg05]
58 139.999985 -0.000060 0.000119 12.860079 6.985206 34.940029 139.999985
59 139.999985 -0.000060 0.000119 30.025803 13.906551 47.424084 139.999985
[Rope2_Seg06]
58 139.999893 -0.000030 -0.000119 15.844773 15.030776 34.542297 139.999893
59 139.999893 -0.000030 -0.000119 -2.311396 2.951700 -8.121271 139.999893
[Rope2_Seg07]
58 139.999893 0.000060 -0.000060 -2.954758 -2.060117 -16.795137 139.999893
59 139.999893 0.000060 -0.000060 -4.310509 -5.975401 -23.153088 139.999893
[Rope2_Seg09]
58 121.338966 0.000089 -0.000060 33.793236 -1.359788 -0.847141 121.338966
59 121.338966 0.000089 -0.000060 33.793236 -1.359788 -0.847141 121.338966
[R_mid_hand01]
58 104.680779 11.144459 -10.335981 -16.212063 45.237247 70.462852 105.778534
59 104.680779 11.144459 -10.335981 -16.212063 45.237247 70.462852 105.778534
[R_mid_hand02]
58 104.070427 2.443552 8.231699 49.067371 -67.749794 39.286461 104.424065
59 104.070427 2.443552 8.231699 49.067368 -67.749771 39.286453 104.424065
[R_mid_hand03]
58 106.028137 -11.221827 -5.996406 -177.101105 15.551026 -76.585571 106.788818
59 106.028137 -11.221827 -5.996406 -177.101105 15.551026 -76.585571 106.788818
[spine02]
58 129.756927 0.001550 0.000119 0.394264 -4.041267 -13.438342 129.756927
59 129.756927 0.001550 0.000119 0.388775 -4.041858 -13.366393 129.756927
[spine03]
58 78.613434 0.081759 -4.898990 1.915604 3.820678 16.798590 78.765968
59 78.613419 0.081761 -4.898989 1.913434 3.822470 16.758537 78.765953
[pelvis]
58 169.435242 0.051022 0.000000 -20.398653 -0.729212 -13.730224 169.435257
59 169.435242 0.051022 0.000000 -16.976589 -0.624868 -13.649440 169.435257
[null_rope03_connect]
58 -1.257226 -2.466202 137.391083 -83.484367 -78.792747 -163.916031 137.418976
59 -1.257226 -2.466202 137.391083 -63.782856 -82.991455 177.732803 137.418976
[null_rope04_connect]
58 -1.259640 -2.480268 -137.844437 -83.484367 -78.792747 -163.916031 137.872513
59 -1.259640 -2.480268 -137.844437 -63.782856 -82.991455 177.732803 137.872513
[Rope3_Seg01]
58 0.000000 0.000000 0.000000 13.057646 16.547840 -93.041779 0.000000
59 0.000000 0.000000 0.000000 14.085142 15.558164 -90.299294 0.000000
[Rope3_Seg02]
58 139.999924 -0.000119 0.000060 3.614580 -17.856781 2.058490 139.999924
59 139.999924 -0.000119 0.000060 2.407827 -15.914959 2.907193 139.999924
[Rope3_Seg03]
58 139.999924 -0.000119 0.000119 10.485890 -32.167908 8.330654 139.999924
59 139.999924 -0.000119 0.000119 6.967112 -29.267775 8.897530 139.999924
[Rope3_Seg04]
58 139.999924 0.000119 0.000000 11.024885 -25.411915 12.517462 139.999924
59 139.999924 0.000119 0.000000 8.737352 -26.803938 12.916737 139.999924
[Rope3_Seg05]
58 139.999924 -0.000238 0.000060 -0.430571 -2.677195 -6.303956 139.999924
59 139.999924 -0.000238 0.000060 -0.534533 -2.437534 -6.698759 139.999924
[Rope3_Seg06]
58 139.999893 -0.000119 -0.000060 -1.275739 -0.646132 -5.260575 139.999893
59 139.999893 -0.000119 -0.000060 -1.272470 -0.380934 -5.466497 139.999893
[Rope3_Seg07]
58 139.999771 0.000060 -0.000119 0.776309 -1.520135 -1.715165 139.999771
59 139.999771 0.000060 -0.000119 0.630238 -1.476568 -1.945465 139.999771
[Rope3_Seg08]
58 139.999985 -0.000060 0.000000 0.712788 -0.956269 -1.052855 139.999985
59 139.999985 -0.000060 0.000000 0.624711 -0.929079 -1.200351 139.999985
[Rope3_Seg09]
58 90.185997 -0.000179 -0.000060 89.793228 -1.359877 -0.847183 90.185997
59 90.185997 -0.000179 -0.000060 89.793228 -1.359877 -0.847183 90.185997
[R_rear_hand01]
58 103.366196 -6.073594 -10.757982 -177.714203 24.565960 -73.910950 104.101845
59 103.366196 -6.073594 -10.757982 -177.714203 24.565960 -73.910950 104.101845
[R_rear_hand02]
58 100.509819 12.039542 -7.992327 -12.874829 36.868488 72.167213 101.543350
59 100.509819 12.039542 -7.992327 -12.874829 36.868488 72.167213 101.543350
[R_rear_hand03]
58 101.539970 5.215704 5.435467 71.484581 -71.816628 21.513813 101.819031
59 101.539970 5.215704 5.435467 71.484581 -71.816628 21.513813 101.819031
[Rope4_Seg01]
58 -0.000006 -0.001001 -0.000153 -94.218140 18.820772 -86.566307 0.001013
59 -0.000006 -0.001018 -0.000153 -94.325081 18.186512 -86.603729 0.001029
[Rope4_Seg02]
58 139.999985 0.000060 0.000119 -3.318324 7.953030 -14.400240 139.999985
59 139.999985 0.000060 0.000119 -3.107677 6.775434 -13.604500 139.999985
[Rope4_Seg03]
58 139.999924 0.000000 -0.000238 -8.288096 17.289904 -32.364895 139.999924
59 139.999924 0.000000 -0.000238 -8.087554 14.699133 -30.293201 139.999924
[Rope4_Seg04]
58 139.999985 0.000000 0.000119 -6.065124 19.278603 -34.176559 139.999985
59 139.999985 0.000000 0.000119 -8.145438 18.454933 -35.370213 139.999985
[Rope4_Seg05]
58 139.999802 -0.000060 -0.000119 -0.014377 2.942212 4.192703 139.999802
59 139.999802 -0.000060 -0.000119 0.105732 2.844244 6.379740 139.999802
[Rope4_Seg06]
58 139.999924 0.000000 0.000060 -2.190062 -1.442282 14.089232 139.999924
59 139.999924 0.000000 0.000060 -1.780397 -1.318263 15.158266 139.999924
[Rope4_Seg07]
58 139.999802 0.000000 0.000000 -0.730991 0.705634 4.815894 139.999802
59 139.999802 0.000000 0.000000 -0.683580 0.805965 5.345336 139.999802
[Rope4_Seg08]
58 139.999924 0.000000 0.000119 -2.104277 0.443121 3.021182 139.999924
59 139.999924 0.000000 0.000119 -2.107339 0.464910 3.391906 139.999924
[Rope4_Seg09]
58 90.185791 0.000060 0.000060 -135.617828 2.228885 0.850567 90.185791
59 90.185791 0.000060 0.000060 -135.617828 2.228885 0.850567 90.185791
[L_rear_hand01]
58 101.696655 -8.392275 -7.654577 -12.874829 -36.868488 107.832764 102.329041
59 101.696655 -8.392275 -7.654577 -12.874829 -36.868488 107.832764 102.329041
[L_rear_hand02]
58 102.726799 -1.568258 5.773216 71.484581 71.816628 158.486160 102.900848
59 102.726799 -1.568258 5.773216 71.484581 71.816628 158.486160 102.900848
[L_rear_hand03]
58 104.552910 9.721220 -10.420293 -177.714203 -24.565960 -106.089035 105.519653
59 104.552910 9.721220 -10.420293 -177.714203 -24.565960 -106.089035 105.519653
